<?xml version="1.0" encoding="UTF-8"?>
<!-- Generated by Pixelmator Pro 4.0 -->
<svg width="120" height="119" viewBox="0 0 120 119" xmlns="http://www.w3.org/2000/svg">
    <linearGradient id="linearGradient1" x1="9.32" y1="57.74" x2="109.6" y2="57.74" gradientUnits="userSpaceOnUse">
        <stop offset="1e-05" stop-color="#ff5151" stop-opacity="1"/>
        <stop offset="0.2" stop-color="#fff668" stop-opacity="1"/>
        <stop offset="0.4" stop-color="#68fc60" stop-opacity="1"/>
        <stop offset="0.6" stop-color="#68e2ff" stop-opacity="1"/>
        <stop offset="0.8" stop-color="#a478ff" stop-opacity="1"/>
        <stop offset="1" stop-color="#ff51a4" stop-opacity="1"/>
    </linearGradient>
    <path id="Path" fill="none" stroke="url(#linearGradient1)" stroke-width="3" d="M 88.199997 78.699997 C 86.300003 77.600006 84 77.399994 82 78.199997 C 75.5 81.100006 72.300003 83.699997 68.300003 83.399994 C 66.400002 83.199997 64.5 82.399994 62.599998 80.899994 C 53.900002 73.600006 46.099998 65.800003 38.900002 55.899998 C 37.200001 53.799995 36.200001 51.199997 36.700001 47.900002 C 37.400002 45.300003 39.700001 41.700005 40.900002 38.700005 C 42.200001 36.200005 41.599998 32.900002 40.099998 30.700005 L 28.900002 12.800003 C 26.299999 9.199997 23.799999 8.800003 19.6 11.099998 C 15.6 13 10.799999 17.199997 10.299999 23.900002 C 9.5 31.599998 12.1 43.200005 22.299999 58.299999 C 28 66.699997 38.900002 79.800003 49.700001 88.399994 C 63.199997 99.399994 74.800003 105.100006 82.400002 106.800003 C 90.099998 108.900002 96.800003 108.900002 101.400002 106 C 104.599998 103.900002 107.199997 100.100006 108.300003 96.800003 C 109.099998 94.300003 108.699997 92 106.300003 90.300003 C 103.900002 88.600006 90.699997 80.699997 88.199997 78.699997 Z"/>
</svg>
