<?xml version="1.0" encoding="UTF-8"?>
<!-- Generated by Pixelmator Pro 4.0 -->
<svg width="430" height="119" viewBox="0 0 430 119" xmlns="http://www.w3.org/2000/svg">
    <path id="CallHeater" fill="#000000" stroke="none" d="M 400.350586 85.597656 C 402.043945 85.597656 403.239258 84.335938 403.239258 82.509766 L 403.239258 63.550781 C 403.239258 59.134766 405.463867 55.382813 410.676758 55.382813 C 411.938477 55.382813 412.834961 55.150391 413.432617 54.652344 C 414.030273 54.1875 414.329102 53.523438 414.329102 52.626953 C 414.329102 51.830078 414.09668 51.166016 413.598633 50.701172 C 413.03418 50.169922 412.137695 49.871094 410.875977 49.871094 C 407.422852 49.871094 404.036133 52.527344 403.040039 56.113281 L 402.907227 56.113281 L 402.907227 52.792969 C 402.907227 51.066406 401.77832 49.871094 400.18457 49.871094 C 398.59082 49.871094 397.461914 51.066406 397.461914 52.792969 L 397.461914 82.509766 C 397.461914 84.335938 398.657227 85.597656 400.350586 85.597656 Z M 377.108398 85.597656 C 383.416992 85.597656 388.264648 82.941406 390.489258 78.259766 C 390.754883 77.628906 390.920898 77.03125 390.920898 76.566406 C 390.920898 75.039063 389.891602 74.042969 388.364258 74.042969 C 387.467773 74.042969 386.803711 74.375 386.206055 75.205078 C 383.516602 79.123047 380.993164 80.583984 376.875977 80.583984 C 370.700195 80.583984 366.881836 76.267578 366.881836 69.294922 L 388.463867 69.294922 C 390.456055 69.294922 391.651367 68.033203 391.651367 65.941406 C 391.651367 56.478516 385.442383 49.871094 376.610352 49.871094 C 367.081055 49.871094 360.938477 56.976563 360.938477 67.867188 C 360.938477 79.023438 366.915039 85.597656 377.108398 85.597656 Z M 366.915039 64.779297 C 367.280273 58.835938 371.131836 54.884766 376.510742 54.884766 C 381.856445 54.884766 385.541992 58.802734 385.674805 64.779297 Z M 345.000977 77.03125 C 345.000977 82.542969 347.790039 85.265625 353.368164 85.265625 L 353.733398 85.265625 C 356.954102 85.265625 357.950195 84.335938 357.950195 82.576172 C 357.950195 81.214844 357.086914 80.451172 355.194336 80.318359 L 354.696289 80.285156 C 351.807617 80.085938 350.77832 78.691406 350.77832 75.769531 L 350.77832 55.216797 L 355.227539 55.216797 C 356.887695 55.216797 357.817383 54.353516 357.817383 52.826172 C 357.817383 51.332031 356.887695 50.46875 355.227539 50.46875 L 350.77832 50.46875 L 350.77832 44.558594 C 350.77832 42.732422 349.583008 41.470703 347.889648 41.470703 C 346.196289 41.470703 345.000977 42.732422 345.000977 44.558594 L 345.000977 50.46875 L 342.112305 50.46875 C 340.452148 50.46875 339.522461 51.332031 339.522461 52.826172 C 339.522461 54.353516 340.452148 55.216797 342.112305 55.216797 L 345.000977 55.216797 Z M 319.069336 85.597656 C 323.717773 85.597656 328.133789 83.007813 330.192383 79.056641 L 330.325195 79.056641 L 330.325195 82.675781 C 330.325195 84.402344 331.454102 85.597656 333.081055 85.597656 C 334.674805 85.597656 335.803711 84.402344 335.803711 82.675781 L 335.803711 61.126953 C 335.803711 54.253906 330.69043 49.871094 322.588867 49.871094 C 316.977539 49.871094 311.930664 52.361328 309.97168 56.146484 C 309.506836 56.976563 309.274414 57.806641 309.274414 58.537109 C 309.274414 60.097656 310.336914 61.126953 311.831055 61.126953 C 312.926758 61.126953 313.69043 60.695313 314.22168 59.732422 C 316.147461 56.3125 318.704102 54.951172 322.456055 54.951172 C 327.237305 54.951172 330.026367 57.474609 330.026367 61.691406 L 330.026367 64.580078 L 320.098633 65.144531 C 312.129883 65.609375 307.581055 69.328125 307.581055 75.238281 C 307.581055 81.447266 312.196289 85.597656 319.069336 85.597656 Z M 320.364258 80.683594 C 316.213867 80.683594 313.458008 78.525391 313.458008 75.238281 C 313.458008 71.984375 316.114258 69.925781 320.762695 69.626953 L 330.026367 69.0625 L 330.026367 71.884766 C 330.026367 76.865234 325.80957 80.683594 320.364258 80.683594 Z M 288.655273 85.597656 C 294.963867 85.597656 299.811523 82.941406 302.036133 78.259766 C 302.301758 77.628906 302.467773 77.03125 302.467773 76.566406 C 302.467773 75.039063 301.438477 74.042969 299.911133 74.042969 C 299.014648 74.042969 298.350586 74.375 297.75293 75.205078 C 295.063477 79.123047 292.540039 80.583984 288.422852 80.583984 C 282.24707 80.583984 278.428711 76.267578 278.428711 69.294922 L 300.010742 69.294922 C 302.00293 69.294922 303.198242 68.033203 303.198242 65.941406 C 303.198242 56.478516 296.989258 49.871094 288.157227 49.871094 C 278.62793 49.871094 272.485352 56.976563 272.485352 67.867188 C 272.485352 79.023438 278.461914 85.597656 288.655273 85.597656 Z M 278.461914 64.779297 C 278.827148 58.835938 282.678711 54.884766 288.057617 54.884766 C 293.40332 54.884766 297.088867 58.802734 297.22168 64.779297 Z M 230.516602 85.464844 C 232.342773 85.464844 233.504883 84.269531 233.504883 82.376953 L 233.504883 63.185547 L 259.801758 63.185547 L 259.801758 82.376953 C 259.801758 84.269531 260.963867 85.464844 262.790039 85.464844 C 264.616211 85.464844 265.77832 84.269531 265.77832 82.376953 L 265.77832 39.710938 C 265.77832 37.818359 264.616211 36.623047 262.790039 36.623047 C 260.963867 36.623047 259.801758 37.818359 259.801758 39.710938 L 259.801758 57.806641 L 233.504883 57.806641 L 233.504883 39.710938 C 233.504883 37.818359 232.342773 36.623047 230.516602 36.623047 C 228.69043 36.623047 227.52832 37.818359 227.52832 39.710938 L 227.52832 82.376953 C 227.52832 84.269531 228.69043 85.464844 230.516602 85.464844 Z M 215.94043 85.597656 C 217.633789 85.597656 218.829102 84.335938 218.829102 82.509766 L 218.829102 39.578125 C 218.829102 37.751953 217.633789 36.490234 215.94043 36.490234 C 214.24707 36.490234 213.051758 37.751953 213.051758 39.578125 L 213.051758 82.509766 C 213.051758 84.335938 214.24707 85.597656 215.94043 85.597656 Z M 202.061523 85.597656 C 203.754883 85.597656 204.950195 84.335938 204.950195 82.509766 L 204.950195 39.578125 C 204.950195 37.751953 203.754883 36.490234 202.061523 36.490234 C 200.368164 36.490234 199.172852 37.751953 199.172852 39.578125 L 199.172852 82.509766 C 199.172852 84.335938 200.368164 85.597656 202.061523 85.597656 Z M 174.801758 85.597656 C 179.450195 85.597656 183.866211 83.007813 185.924805 79.056641 L 186.057617 79.056641 L 186.057617 82.675781 C 186.057617 84.402344 187.186523 85.597656 188.813477 85.597656 C 190.407227 85.597656 191.536133 84.402344 191.536133 82.675781 L 191.536133 61.126953 C 191.536133 54.253906 186.422852 49.871094 178.321289 49.871094 C 172.709961 49.871094 167.663086 52.361328 165.704102 56.146484 C 165.239258 56.976563 165.006836 57.806641 165.006836 58.537109 C 165.006836 60.097656 166.069336 61.126953 167.563477 61.126953 C 168.65918 61.126953 169.422852 60.695313 169.954102 59.732422 C 171.879883 56.3125 174.436523 54.951172 178.188477 54.951172 C 182.969727 54.951172 185.758789 57.474609 185.758789 61.691406 L 185.758789 64.580078 L 175.831055 65.144531 C 167.862305 65.609375 163.313477 69.328125 163.313477 75.238281 C 163.313477 81.447266 167.928711 85.597656 174.801758 85.597656 Z M 176.09668 80.683594 C 171.946289 80.683594 169.19043 78.525391 169.19043 75.238281 C 169.19043 71.984375 171.84668 69.925781 176.495117 69.626953 L 185.758789 69.0625 L 185.758789 71.884766 C 185.758789 76.865234 181.541992 80.683594 176.09668 80.683594 Z M 138.709961 85.796875 C 147.475586 85.796875 153.717773 82.210938 156.87207 75.869141 C 157.40332 74.806641 157.668945 73.910156 157.668945 72.880859 C 157.668945 71.320313 156.540039 70.191406 154.946289 70.191406 C 153.618164 70.191406 152.788086 70.822266 152.157227 72.283203 C 149.899414 77.662109 144.985352 80.285156 138.743164 80.285156 C 129.280273 80.285156 123.270508 72.78125 123.270508 61.027344 C 123.270508 49.373047 129.34668 41.802734 138.709961 41.802734 C 144.620117 41.802734 149.766602 44.857422 152.024414 50.501953 C 152.688477 52.195313 153.717773 52.992188 155.178711 52.992188 C 156.805664 52.992188 157.868164 51.929688 157.868164 50.269531 C 157.868164 49.572266 157.702148 48.742188 157.370117 47.912109 C 154.547852 40.773438 147.442383 36.291016 138.709961 36.291016 C 125.594727 36.291016 117.12793 45.986328 117.12793 61.027344 C 117.12793 76.201172 125.495117 85.796875 138.709961 85.796875 Z"/>
    <linearGradient id="linearGradient1" x1="16.282245" y1="60.186603" x2="101.460614" y2="60.186603" gradientUnits="userSpaceOnUse">
        <stop offset="1e-05" stop-color="#ff5151" stop-opacity="1"/>
        <stop offset="0.2" stop-color="#fff668" stop-opacity="1"/>
        <stop offset="0.4" stop-color="#68fc60" stop-opacity="1"/>
        <stop offset="0.6" stop-color="#68e2ff" stop-opacity="1"/>
        <stop offset="0.8" stop-color="#a478ff" stop-opacity="1"/>
        <stop offset="1" stop-color="#ff51a4" stop-opacity="1"/>
    </linearGradient>
    <path id="Path" fill="none" stroke="url(#linearGradient1)" stroke-width="3" d="M 83.28334 76.400116 C 81.669472 75.549225 79.715836 75.394508 78.017029 76.013351 C 72.495895 78.25663 69.777794 80.267845 66.380173 80.035782 C 64.766304 79.881073 63.152431 79.262238 61.538563 78.101913 C 54.148739 72.455032 47.523373 66.421379 41.407658 58.763275 C 39.963669 57.138832 39.114262 55.127617 39.538963 52.574913 C 40.133549 50.563698 42.087181 47.778938 43.106468 45.458298 C 44.210693 43.524437 43.70105 40.971733 42.426941 39.269936 L 32.913605 25.42347 C 30.705147 22.638695 28.581635 22.329285 25.014133 24.108437 C 21.61651 25.578171 17.539364 28.827065 17.114662 34.009819 C 16.435139 39.966118 18.643593 48.939255 27.307526 60.619789 C 32.149136 67.117569 41.407658 77.251022 50.581234 83.903503 C 62.048203 92.412506 71.901314 96.821724 78.356789 98.136749 C 84.897209 99.761192 90.588226 99.761192 94.495491 97.517914 C 97.213585 95.893463 99.422035 92.953995 100.356392 90.401291 C 101.035912 88.46743 100.696144 86.688271 98.657578 85.373245 C 96.619003 84.05822 85.406853 77.947205 83.28334 76.400116 Z"/>
</svg>
