<?xml version="1.0" encoding="UTF-8"?>
<!-- Generated by Pixelmator Pro 4.0 -->
<svg width="430" height="119" viewBox="0 0 430 119" xmlns="http://www.w3.org/2000/svg">
    <path id="Shape" fill="#ffffff" fill-rule="evenodd" stroke="none" d="M -86 331 L 504 331 L 504 -207 L -86 -207 Z"/>
    <text id="CallHeater" xml:space="preserve" x="112.338867" y="81" font-family="SF Pro Rounded" font-size="68" fill="#000000">CallHeater</text>
    <linearGradient id="linearGradient1" x1="16.282245" y1="60.186603" x2="101.460614" y2="60.186603" gradientUnits="userSpaceOnUse">
        <stop offset="1e-05" stop-color="#ff5151" stop-opacity="1"/>
        <stop offset="0.2" stop-color="#fff668" stop-opacity="1"/>
        <stop offset="0.4" stop-color="#68fc60" stop-opacity="1"/>
        <stop offset="0.6" stop-color="#68e2ff" stop-opacity="1"/>
        <stop offset="0.8" stop-color="#a478ff" stop-opacity="1"/>
        <stop offset="1" stop-color="#ff51a4" stop-opacity="1"/>
    </linearGradient>
    <path id="Path" fill="none" stroke="url(#linearGradient1)" stroke-width="3" d="M 83.28334 76.400116 C 81.669472 75.549225 79.715836 75.394508 78.017029 76.013351 C 72.495895 78.25663 69.777794 80.267845 66.380173 80.035782 C 64.766304 79.881073 63.152431 79.262238 61.538563 78.101913 C 54.148739 72.455032 47.523373 66.421379 41.407658 58.763275 C 39.963669 57.138832 39.114262 55.127617 39.538963 52.574913 C 40.133549 50.563698 42.087181 47.778938 43.106468 45.458298 C 44.210693 43.524437 43.70105 40.971733 42.426941 39.269936 L 32.913605 25.42347 C 30.705147 22.638695 28.581635 22.329285 25.014133 24.108437 C 21.61651 25.578171 17.539364 28.827065 17.114662 34.009819 C 16.435139 39.966118 18.643593 48.939255 27.307526 60.619789 C 32.149136 67.117569 41.407658 77.251022 50.581234 83.903503 C 62.048203 92.412506 71.901314 96.821724 78.356789 98.136749 C 84.897209 99.761192 90.588226 99.761192 94.495491 97.517914 C 97.213585 95.893463 99.422035 92.953995 100.356392 90.401291 C 101.035912 88.46743 100.696144 86.688271 98.657578 85.373245 C 96.619003 84.05822 85.406853 77.947205 83.28334 76.400116 Z"/>
</svg>
