<?xml version="1.0" encoding="UTF-8"?>
<!-- Generated by Pixelmator Pro 4.0 -->
<svg width="292" height="59" viewBox="0 0 292 59" xmlns="http://www.w3.org/2000/svg">
    <path id="CallHeater" fill="#000000" stroke="none" d="M 275.367188 45.492188 C 277.453125 45.492188 278.789063 44.203125 278.789063 41.929688 L 278.789063 30.773438 C 278.789063 27.796875 279.890625 26.039063 283.007813 25.992188 C 284.34375 25.96875 285.328125 25.664063 285.984375 25.101563 C 286.640625 24.539063 286.96875 23.71875 286.96875 22.640625 C 286.96875 21.46875 286.640625 20.625 285.984375 20.109375 C 285.492188 19.6875 284.765625 19.476563 283.851563 19.476563 C 281.34375 19.476563 279.28125 21.328125 278.625 24.445313 L 278.484375 24.445313 L 278.484375 22.804688 C 278.484375 20.625 277.171875 19.359375 275.25 19.359375 C 273.28125 19.359375 271.945313 20.625 271.945313 22.804688 L 271.945313 41.929688 C 271.945313 44.203125 273.304688 45.492188 275.367188 45.492188 Z M 256.851563 45.539063 C 261.703125 45.539063 265.59375 43.710938 267.257813 40.617188 C 267.5625 40.054688 267.726563 39.492188 267.726563 38.953125 C 267.726563 37.382813 266.53125 36.445313 265.054688 36.445313 C 264.164063 36.445313 263.554688 36.703125 262.828125 37.453125 C 260.976563 39.632813 259.335938 40.476563 256.828125 40.476563 C 253.359375 40.476563 251.109375 38.039063 251.109375 34.3125 L 251.109375 34.007813 L 265.453125 34.007813 C 267.351563 34.007813 268.429688 32.929688 268.429688 31.03125 C 268.429688 24.210938 263.648438 19.335938 256.523438 19.335938 C 249.09375 19.335938 244.382813 24.46875 244.382813 32.554688 C 244.382813 40.6875 249 45.539063 256.851563 45.539063 Z M 251.179688 29.8125 C 251.414063 26.601563 253.59375 24.398438 256.59375 24.398438 C 259.59375 24.398438 261.703125 26.53125 261.84375 29.8125 Z M 230.414063 38.578125 C 230.414063 43.007813 232.734375 45.28125 237.304688 45.28125 L 237.539063 45.28125 C 240.421875 45.28125 242.390625 44.25 242.390625 42.234375 C 242.390625 40.640625 241.476563 39.9375 239.789063 39.75 L 239.34375 39.703125 C 237.867188 39.585938 237.257813 38.835938 237.257813 37.054688 L 237.257813 25.03125 L 239.671875 25.03125 C 241.289063 25.03125 242.296875 24.023438 242.296875 22.453125 C 242.296875 20.882813 241.289063 19.875 239.671875 19.875 L 237.257813 19.875 L 237.257813 17.085938 C 237.257813 14.882813 235.96875 13.523438 233.835938 13.523438 C 231.703125 13.523438 230.414063 14.882813 230.414063 17.085938 L 230.414063 19.875 L 229.101563 19.875 C 227.484375 19.875 226.453125 20.859375 226.453125 22.453125 C 226.453125 24.046875 227.484375 25.03125 229.101563 25.03125 L 230.414063 25.03125 Z M 209.742188 45.398438 C 212.882813 45.398438 216.023438 43.828125 217.429688 41.15625 L 217.570313 41.15625 L 217.570313 42.445313 C 217.710938 44.460938 219 45.492188 220.851563 45.492188 C 222.796875 45.492188 224.179688 44.320313 224.179688 42.046875 L 224.179688 27.726563 C 224.179688 22.664063 219.984375 19.335938 213.539063 19.335938 C 208.335938 19.335938 204.304688 21.1875 203.132813 24.1875 C 202.898438 24.703125 202.78125 25.195313 202.78125 25.734375 C 202.78125 27.28125 203.976563 28.359375 205.640625 28.359375 C 206.742188 28.359375 207.609375 27.9375 208.359375 27.09375 C 209.882813 25.125 211.148438 24.445313 213.234375 24.445313 C 215.8125 24.445313 217.453125 25.804688 217.453125 28.148438 L 217.453125 29.8125 L 211.125 30.1875 C 204.84375 30.5625 201.328125 33.210938 201.328125 37.78125 C 201.328125 42.304688 204.960938 45.398438 209.742188 45.398438 Z M 211.992188 40.453125 C 209.695313 40.453125 208.148438 39.28125 208.148438 37.40625 C 208.148438 35.625 209.601563 34.476563 212.15625 34.289063 L 217.453125 33.960938 L 217.453125 35.789063 C 217.453125 38.507813 214.992188 40.453125 211.992188 40.453125 Z M 187.21875 45.539063 C 192.070313 45.539063 195.960938 43.710938 197.625 40.617188 C 197.929688 40.054688 198.09375 39.492188 198.09375 38.953125 C 198.09375 37.382813 196.898438 36.445313 195.421875 36.445313 C 194.53125 36.445313 193.921875 36.703125 193.195313 37.453125 C 191.34375 39.632813 189.703125 40.476563 187.195313 40.476563 C 183.726563 40.476563 181.476563 38.039063 181.476563 34.3125 L 181.476563 34.007813 L 195.820313 34.007813 C 197.71875 34.007813 198.796875 32.929688 198.796875 31.03125 C 198.796875 24.210938 194.015625 19.335938 186.890625 19.335938 C 179.460938 19.335938 174.75 24.46875 174.75 32.554688 C 174.75 40.6875 179.367188 45.539063 187.21875 45.539063 Z M 181.546875 29.8125 C 181.78125 26.601563 183.960938 24.398438 186.960938 24.398438 C 189.960938 24.398438 192.070313 26.53125 192.210938 29.8125 Z M 144.773438 45.445313 C 147 45.445313 148.3125 44.085938 148.3125 41.765625 L 148.3125 30.75 L 163.546875 30.75 L 163.546875 41.765625 C 163.546875 44.085938 164.859375 45.445313 167.085938 45.445313 C 169.3125 45.445313 170.625 44.085938 170.625 41.765625 L 170.625 14.414063 C 170.625 12.070313 169.3125 10.710938 167.085938 10.710938 C 164.859375 10.710938 163.546875 12.070313 163.546875 14.414063 L 163.546875 24.914063 L 148.3125 24.914063 L 148.3125 14.414063 C 148.3125 12.070313 147 10.710938 144.773438 10.710938 C 142.546875 10.710938 141.234375 12.070313 141.234375 14.414063 L 141.234375 41.765625 C 141.234375 44.085938 142.546875 45.445313 144.773438 45.445313 Z M 132.609375 45.492188 C 134.625 45.492188 136.03125 44.273438 136.03125 41.929688 L 136.03125 14.25 C 136.03125 11.90625 134.625 10.664063 132.609375 10.664063 C 130.617188 10.664063 129.1875 11.90625 129.1875 14.25 L 129.1875 41.929688 C 129.1875 44.273438 130.617188 45.492188 132.609375 45.492188 Z M 120.984375 45.492188 C 123 45.492188 124.40625 44.273438 124.40625 41.929688 L 124.40625 14.25 C 124.40625 11.90625 123 10.664063 120.984375 10.664063 C 118.992188 10.664063 117.5625 11.90625 117.5625 14.25 L 117.5625 41.929688 C 117.5625 44.273438 118.992188 45.492188 120.984375 45.492188 Z M 98.554688 45.398438 C 101.695313 45.398438 104.835938 43.828125 106.242188 41.15625 L 106.382813 41.15625 L 106.382813 42.445313 C 106.523438 44.460938 107.8125 45.492188 109.664063 45.492188 C 111.609375 45.492188 112.992188 44.320313 112.992188 42.046875 L 112.992188 27.726563 C 112.992188 22.664063 108.796875 19.335938 102.351563 19.335938 C 97.148438 19.335938 93.117188 21.1875 91.945313 24.1875 C 91.710938 24.703125 91.59375 25.195313 91.59375 25.734375 C 91.59375 27.28125 92.789063 28.359375 94.453125 28.359375 C 95.554688 28.359375 96.421875 27.9375 97.171875 27.09375 C 98.695313 25.125 99.960938 24.445313 102.046875 24.445313 C 104.625 24.445313 106.265625 25.804688 106.265625 28.148438 L 106.265625 29.8125 L 99.9375 30.1875 C 93.65625 30.5625 90.140625 33.210938 90.140625 37.78125 C 90.140625 42.304688 93.773438 45.398438 98.554688 45.398438 Z M 100.804688 40.453125 C 98.507813 40.453125 96.960938 39.28125 96.960938 37.40625 C 96.960938 35.625 98.414063 34.476563 100.96875 34.289063 L 106.265625 33.960938 L 106.265625 35.789063 C 106.265625 38.507813 103.804688 40.453125 100.804688 40.453125 Z M 72.703125 45.5625 C 79.101563 45.5625 84.140625 42.679688 86.25 37.992188 C 86.601563 37.171875 86.789063 36.421875 86.789063 35.625 C 86.789063 33.75 85.476563 32.484375 83.484375 32.484375 C 81.984375 32.484375 81.09375 33.117188 80.367188 34.710938 C 78.84375 38.109375 76.171875 39.726563 72.609375 39.726563 C 67.195313 39.726563 63.796875 35.273438 63.796875 28.054688 C 63.796875 20.929688 67.242188 16.453125 72.585938 16.453125 C 75.960938 16.453125 78.726563 18.1875 80.273438 21.632813 C 81.046875 23.273438 82.054688 23.976563 83.648438 23.976563 C 85.523438 23.976563 86.765625 22.78125 86.765625 20.929688 C 86.765625 20.085938 86.53125 19.171875 86.0625 18.28125 C 83.742188 13.40625 78.84375 10.59375 72.515625 10.59375 C 62.789063 10.59375 56.578125 17.179688 56.578125 28.078125 C 56.578125 39 62.671875 45.5625 72.703125 45.5625 Z"/>
    <linearGradient id="linearGradient1" x1="8.680107" y1="28.573514" x2="46.642836" y2="28.573514" gradientUnits="userSpaceOnUse">
        <stop offset="1e-05" stop-color="#ff5151" stop-opacity="1"/>
        <stop offset="0.2" stop-color="#fff668" stop-opacity="1"/>
        <stop offset="0.4" stop-color="#68fc60" stop-opacity="1"/>
        <stop offset="0.6" stop-color="#68e2ff" stop-opacity="1"/>
        <stop offset="0.8" stop-color="#a478ff" stop-opacity="1"/>
        <stop offset="1" stop-color="#ff51a4" stop-opacity="1"/>
    </linearGradient>
    <path id="Path" fill="none" stroke="url(#linearGradient1)" stroke-width="3" d="M 38.541492 35.799637 C 37.82222 35.420403 36.951511 35.351448 36.194378 35.627258 C 33.733692 36.627052 32.522278 37.523422 31.008007 37.419998 C 30.288729 37.351044 29.56945 37.075241 28.850172 36.558102 C 25.556639 34.041374 22.603811 31.352261 19.878128 27.939159 C 19.234564 27.215168 18.855997 26.318798 19.04528 25.181099 C 19.310278 24.284729 20.180983 23.043602 20.635263 22.009327 C 21.127399 21.147434 20.900259 20.009731 20.332409 19.251266 L 16.092455 13.080101 C 15.10818 11.838974 14.161761 11.701073 12.571779 12.494015 C 11.05751 13.149052 9.240387 14.597034 9.051103 16.906914 C 8.748249 19.561546 9.732525 23.560738 13.59391 28.766579 C 15.751744 31.662544 19.878128 36.178871 23.966656 39.143784 C 29.077312 42.936119 33.468697 44.901241 36.345806 45.487328 C 39.260773 46.211319 41.797176 46.211319 43.538586 45.211521 C 44.75 44.48753 45.734272 43.177452 46.1507 42.039749 C 46.453552 41.177856 46.302124 40.384911 45.393566 39.798824 C 44.485004 39.212738 39.487911 36.489151 38.541492 35.799637 Z"/>
</svg>
